<svg width="5000" height="5000" viewBox="0 0 5000 5000" fill="none" xmlns="http://www.w3.org/2000/svg">
<rect width="5000" height="5000" fill="#2E2E2E"/>
<path d="M2488.38 1027.06C2741.61 1042.19 2720.14 1418.5 2883.09 1562.18C2954.88 1637.35 3367.1 1818.61 3477.72 1741.64C3640.7 1638.82 3796.95 1487.17 3990.86 1591.14C4134.8 1652.8 4167.68 1852.56 4109.84 1980.73C3955.02 2175.48 3732.04 2313.04 3698.65 2581.58C3570.19 3608.91 1632.37 4252.88 1098.76 3230C940.339 2959.18 1569.73 2503.77 1569.73 2503.77C1899.74 2210.64 2239.04 1795.52 2162.66 1319.11C2133.43 1144.85 2332.59 1006.33 2488.38 1027.06Z" fill="#2E2E2E" stroke="#E7C47F" stroke-width="25"/>
<path d="M2080.47 1860.76C2080.47 1860.76 2200.64 1936.13 2235.72 1991.65C2266.53 2041.2 2302.3 2152.23 2302.3 2152.23C2302.3 2152.23 2351.57 2278.87 2362.79 2345.89C2376.71 2457.77 2322.04 2573.06 2228.33 2635.39C1991.06 2815.27 1698.8 2382.42 1698.8 2382.42C1855.51 2224.76 1982.58 2063.34 2080.47 1860.76Z" fill="#2E2E2E" stroke="#E7C47F" stroke-width="25"/>
<ellipse cx="1427.72" cy="2934.91" rx="372.724" ry="370.841" fill="#2E2E2E" stroke="#E7C47F" stroke-width="25"/>
<path fill-rule="evenodd" clip-rule="evenodd" d="M2723.86 3177.94C2690.82 3179.34 2692.36 3177.97 2681.04 3216.31C2668.54 3258.65 2658.67 3266.31 2582.68 3292.5C2481.22 3327.48 2471.5 3334.29 2474.93 3367.99C2478.02 3398.21 2499.26 3408.87 2536.09 3398.66C2561.97 3391.49 2658 3355.86 2678.68 3345.75C2740.51 3315.54 2773.04 3254.36 2757.9 3196.76C2752.81 3177.39 2751.66 3176.75 2723.86 3177.94Z" fill="#2E2E2E" stroke="#E7C47F" stroke-width="25"/>
<ellipse cx="3011.25" cy="2470.71" rx="100.65" ry="171.543" transform="rotate(10.1841 3011.25 2470.71)" fill="#2E2E2E" stroke="#E7C47F" stroke-width="25"/>
<ellipse cx="2078.58" cy="2324.33" rx="100.65" ry="171.543" transform="rotate(10.1841 2078.58 2324.33)" fill="#2E2E2E" stroke="#E7C47F" stroke-width="25"/>
<path fill-rule="evenodd" clip-rule="evenodd" d="M3657.41 1791.45C3639.85 1796.46 3627.76 1812.69 3627.62 1831.41C3627.49 1849.14 3629.55 1851.84 3679.96 1900.37L3688.45 1908.54L3667.59 1931.01C3656.11 1943.36 3646.33 1953.63 3645.86 1953.83C3645.39 1954.03 3633.09 1942.65 3618.53 1928.55C3579.66 1890.9 3561.54 1885.86 3540.09 1906.76C3516.5 1929.73 3521.94 1949.65 3562.46 1988.65L3589.58 2014.75L3569.26 2036.7C3536.16 2072.45 3532.32 2095.35 3556.19 2114.6C3579 2133 3595.6 2128.32 3627.27 2094.58L3648.49 2071.98L3672.9 2095.84C3686.33 2108.97 3700.09 2121.57 3703.48 2123.85C3734.88 2144.96 3774.45 2114.88 3764.26 2077.65C3761.91 2069.09 3760.88 2067.84 3733.2 2040.28L3704.56 2011.77L3725.3 1989.36C3750.22 1962.44 3743.3 1961.98 3774.99 1992.63C3813.97 2030.33 3829.54 2034.83 3852.6 2015.07C3877.36 1993.85 3871.3 1971.26 3830.24 1931.78L3803.07 1905.65L3811.62 1896.61C3846.22 1860 3849.84 1855.66 3853.09 1846.91C3866.7 1810.19 3824.82 1776.01 3793.24 1798.09C3790 1800.35 3777.99 1812.32 3766.55 1824.67C3741.55 1851.68 3748.12 1852 3717.4 1822.28C3685.28 1791.2 3675.64 1786.25 3657.41 1791.45ZM3679.85 1805.62C3705.28 1817.7 3718.05 1848.85 3740.91 1863.57L3747.65 1867.91L3751.02 1863.6C3752.87 1861.23 3754.11 1858.83 3753.77 1858.27C3752.75 1856.59 3796.53 1810.14 3801.86 1807.25C3820.8 1796.97 3842.92 1811.03 3842.74 1833.24C3842.66 1844.48 3840.49 1847.69 3814.21 1875.59C3782.84 1908.88 3783.68 1906.94 3796.48 1916.71C3847.06 1955.32 3864.32 1989.36 3842.38 2007.21C3826.04 2020.51 3815.45 2015.61 3776.9 1976.93L3747.03 1946.96L3743.08 1951.63C3737.14 1958.63 3695.47 2003.47 3694.44 2003.97C3693.94 2004.21 3691.93 2006.25 3689.98 2008.51L3686.42 2012.61L3696.54 2021.98C3757.12 2078.09 3763.8 2089.85 3746.02 2108.99C3729.95 2126.28 3718.13 2122.41 3682.71 2088.26C3669.03 2075.08 3655.34 2062.24 3652.27 2059.73L3646.69 2055.16L3638.59 2064.22C3593.41 2114.75 3581.25 2121.19 3562.91 2104.3C3546.6 2089.28 3551.02 2073.83 3580.43 2043.07C3592.11 2030.86 3603.01 2019.44 3604.66 2017.7L3607.64 2014.53L3603.76 2009.83C3601.63 2007.25 3599.23 2005.14 3598.42 2005.14C3595.66 2005.14 3545.46 1954.98 3542.65 1949.41C3532.41 1929.1 3550.08 1904.97 3572.67 1908.42C3581.53 1909.78 3585.82 1913.26 3617.79 1945.11C3632.75 1960.01 3645.42 1972.03 3645.95 1971.82C3646.47 1971.61 3660.35 1957.01 3676.79 1939.36L3706.67 1907.27L3698.74 1900.42C3674.85 1879.78 3644.15 1848.41 3641.86 1842.31C3632.75 1818.03 3656.89 1794.71 3679.85 1805.62Z" fill="#E7C47F" stroke="#E7C47F" stroke-width="5"/>
</svg>
