<svg width="5000" height="5000" viewBox="0 0 5000 5000" fill="none" xmlns="http://www.w3.org/2000/svg">
<path d="M2346.99 560.938C2708.45 582.54 2677.81 1119.71 2910.39 1324.8C3012.87 1432.11 3601.25 1690.86 3759.15 1580.98C3991.78 1434.21 4214.81 1217.74 4491.6 1366.15C4697.06 1454.16 4743.98 1739.32 4661.42 1922.27C4440.45 2200.27 4122.17 2396.63 4074.51 2779.98C3891.14 4246.45 1125.16 5165.71 363.505 3705.58C322.295 3635.13 312.763 3555.42 334.001 3473C274.001 3340 285 3070.5 457.499 2912C559 2798.5 754.5 2728 917 2761.5C989.513 2701.97 1035.74 2668.91 1035.74 2668.91C1506.8 2250.47 1991.1 1657.9 1882.07 977.83C1840.36 729.08 2124.63 531.355 2346.99 560.938Z" stroke="#72B7F3" stroke-width="25"/>
<path d="M1764.3 1751C1764.3 1751 1935.69 1858.57 1985.71 1937.8C2029.65 2008.53 2080.67 2166.98 2080.67 2166.98C2080.67 2166.98 2150.94 2347.73 2166.94 2443.37C2186.78 2603.05 2108.81 2767.59 1975.18 2856.55C1636.79 3113.28 1220 2495.51 1220 2495.51C1443.49 2270.5 1624.7 2040.12 1764.3 1751Z" stroke="#72B7F3" stroke-width="25"/>
<ellipse cx="833" cy="3284.5" rx="532" ry="529.5" stroke="#72B7F3" stroke-width="25"/>
<path fill-rule="evenodd" clip-rule="evenodd" d="M2683.15 3631.52C2635.98 3633.52 2638.18 3631.56 2622.02 3686.3C2604.18 3746.75 2590.08 3757.68 2481.61 3795.08C2336.77 3845.02 2322.89 3854.74 2327.8 3902.84C2332.2 3945.99 2362.51 3961.19 2415.1 3946.63C2452.04 3936.39 2589.13 3885.53 2618.66 3871.1C2706.92 3827.97 2753.35 3740.63 2731.74 3658.4C2724.47 3630.74 2722.84 3629.83 2683.15 3631.52Z" stroke="#72B7F3" stroke-width="25"/>
<ellipse cx="3093.08" cy="2621.71" rx="143.675" ry="244.872" transform="rotate(10.1841 3093.08 2621.71)" stroke="#72B7F3" stroke-width="25"/>
<ellipse cx="1761.72" cy="2412.76" rx="143.675" ry="244.872" transform="rotate(10.1841 1761.72 2412.76)" stroke="#72B7F3" stroke-width="25"/>
<path fill-rule="evenodd" clip-rule="evenodd" d="M4015.45 1652.55C3990.39 1659.71 3973.12 1682.87 3972.92 1709.6C3972.74 1734.9 3975.67 1738.76 4047.64 1808.03L4059.76 1819.7L4029.98 1851.76C4013.59 1869.4 3999.64 1884.06 3998.96 1884.34C3998.29 1884.62 3980.73 1868.38 3959.95 1848.25C3904.46 1794.51 3878.6 1787.32 3847.98 1817.14C3814.3 1849.94 3822.07 1878.38 3879.91 1934.04L3918.62 1971.3L3889.62 2002.64C3842.37 2053.67 3836.89 2086.35 3870.96 2113.83C3903.52 2140.09 3927.21 2133.42 3972.42 2085.26L4002.71 2052.99L4037.56 2087.06C4056.73 2105.8 4076.37 2123.79 4081.21 2127.04C4126.03 2157.17 4182.52 2114.23 4167.97 2061.09C4164.62 2048.86 4163.14 2047.09 4123.63 2007.74L4082.76 1967.05L4112.36 1935.06C4147.93 1896.63 4138.06 1895.98 4183.29 1939.73C4238.94 1993.55 4261.16 1999.97 4294.08 1971.76C4329.42 1941.47 4320.76 1909.22 4262.16 1852.86L4223.38 1815.57L4235.57 1802.67C4284.97 1750.4 4290.14 1744.2 4294.77 1731.72C4314.2 1679.3 4254.41 1630.52 4209.35 1662.02C4204.72 1665.26 4187.57 1682.34 4171.24 1699.98C4135.55 1738.53 4144.94 1738.99 4101.09 1696.56C4055.23 1652.2 4041.48 1645.13 4015.45 1652.55ZM4047.48 1672.78C4083.78 1690.02 4102.01 1734.48 4134.65 1755.51L4144.26 1761.69L4149.07 1755.55C4151.72 1752.16 4153.48 1748.74 4153 1747.93C4151.54 1745.53 4214.03 1679.24 4221.64 1675.1C4248.68 1660.43 4280.25 1680.5 4280 1712.2C4279.88 1728.25 4276.79 1732.83 4239.27 1772.66C4194.5 1820.17 4195.69 1817.41 4213.97 1831.36C4286.16 1886.47 4310.81 1935.06 4279.49 1960.54C4256.17 1979.52 4241.05 1972.54 4186.02 1917.32L4143.38 1874.54L4137.74 1881.2C4129.26 1891.19 4069.78 1955.19 4068.3 1955.91C4067.59 1956.25 4064.73 1959.17 4061.94 1962.39L4056.86 1968.25L4071.3 1981.62C4157.78 2061.72 4167.32 2078.5 4141.93 2105.82C4119 2130.5 4102.13 2124.98 4051.56 2076.23C4032.04 2057.42 4012.49 2039.09 4008.11 2035.51L4000.15 2028.99L3988.58 2041.92C3924.09 2114.05 3906.73 2123.24 3880.56 2099.13C3857.27 2077.69 3863.58 2055.64 3905.57 2011.73C3922.24 1994.3 3937.8 1978 3940.15 1975.51L3944.41 1970.98L3938.87 1964.29C3935.83 1960.6 3932.4 1957.59 3931.24 1957.59C3927.3 1957.59 3855.65 1885.98 3851.64 1878.04C3837.01 1849.04 3862.24 1814.6 3894.49 1819.52C3907.14 1821.46 3913.26 1826.43 3958.89 1871.89C3980.25 1893.16 3998.33 1910.32 3999.08 1910.02C3999.83 1909.73 4019.65 1888.87 4043.11 1863.68L4085.77 1817.88L4074.45 1808.1C4040.35 1778.64 3996.51 1733.86 3993.25 1725.15C3980.25 1690.49 4014.71 1657.21 4047.48 1672.78Z" fill="#72B7F3" stroke="#72B7F3" stroke-width="5"/>
</svg>
